<?xml version="1.0" standalone="no"?>
<!DOCTYPE svg PUBLIC "-//W3C//DTD SVG 20010904//EN"
 "http://www.w3.org/TR/2001/REC-SVG-20010904/DTD/svg10.dtd">
<svg version="1.0" xmlns="http://www.w3.org/2000/svg"
 width="512.000000pt" height="512.000000pt" viewBox="0 0 512.000000 512.000000"
 preserveAspectRatio="xMidYMid meet">

<g transform="translate(0.000000,512.000000) scale(0.100000,-0.100000)"
fill="#000000" stroke="none">
<path d="M2280 5106 c-156 -19 -222 -31 -375 -71 -883 -233 -1585 -935 -1820
-1820 -86 -324 -107 -692 -60 -1025 54 -383 206 -768 433 -1095 184 -266 455
-525 732 -702 327 -208 704 -341 1086 -383 151 -17 566 -8 694 14 586 103
1099 382 1488 810 335 368 549 811 638 1316 25 147 31 556 9 733 -66 550 -324
1076 -725 1478 -215 216 -427 369 -686 495 -247 121 -484 196 -739 235 -170
26 -513 34 -675 15z m570 -180 c542 -73 1023 -308 1395 -681 360 -361 583
-792 671 -1301 25 -140 28 -185 28 -379 1 -275 -26 -462 -101 -705 -118 -383
-308 -696 -597 -986 -290 -289 -604 -479 -986 -597 -239 -74 -430 -102 -700
-101 -219 0 -278 6 -490 49 -756 154 -1411 696 -1708 1415 -125 300 -181 586
-182 912 0 488 131 924 401 1331 158 238 418 498 656 656 318 211 639 331
1033 386 129 18 449 18 580 1z"/>
<path d="M1881 3784 l-31 -26 0 -1199 0 -1200 25 -24 c17 -17 35 -25 60 -25
37 0 48 7 460 275 61 40 157 103 215 140 58 38 141 92 185 120 44 29 283 184
530 344 248 161 458 301 468 313 9 11 17 36 17 58 0 46 -19 64 -176 165 -60
38 -179 115 -264 170 -85 56 -195 128 -245 160 -49 32 -126 82 -170 110 -327
215 -950 617 -974 630 -42 21 -65 19 -100 -11z m284 -319 c61 -39 234 -152
385 -250 151 -98 338 -219 415 -270 77 -50 185 -120 239 -155 55 -36 148 -96
208 -135 59 -38 115 -75 125 -82 16 -10 16 -13 3 -26 -8 -8 -114 -79 -235
-157 -121 -79 -256 -166 -300 -195 -44 -28 -127 -82 -185 -120 -58 -37 -141
-91 -185 -120 -44 -29 -198 -129 -342 -223 l-263 -171 0 995 c0 793 3 994 13
988 6 -4 62 -40 122 -79z"/>
</g>
</svg>
