<?xml version="1.0" standalone="no"?>
<!DOCTYPE svg PUBLIC "-//W3C//DTD SVG 20010904//EN"
 "http://www.w3.org/TR/2001/REC-SVG-20010904/DTD/svg10.dtd">
<svg version="1.0" xmlns="http://www.w3.org/2000/svg"
 width="512.000000pt" height="512.000000pt" viewBox="0 0 512.000000 512.000000"
 preserveAspectRatio="xMidYMid meet">

<g transform="translate(0.000000,512.000000) scale(0.100000,-0.100000)"
fill="#000000" stroke="none">
<path d="M2365 5114 c-362 -37 -633 -112 -930 -258 -259 -127 -449 -262 -659
-465 -218 -213 -377 -432 -512 -706 -126 -258 -203 -511 -246 -810 -17 -118
-17 -512 0 -630 43 -301 120 -553 247 -810 253 -512 641 -903 1150 -1161 338
-170 676 -257 1060 -271 493 -17 971 107 1403 364 319 190 645 510 856 843 72
113 188 353 235 486 233 656 195 1361 -108 1981 -122 249 -269 459 -461 657
-219 226 -432 382 -715 521 -250 124 -495 200 -769 241 -97 14 -468 26 -551
18z m410 -164 c460 -42 929 -232 1295 -527 552 -443 890 -1151 890 -1863 0
-628 -257 -1247 -705 -1695 -572 -571 -1387 -817 -2175 -655 -458 94 -887 327
-1221 662 -188 188 -325 381 -449 630 -572 1151 -127 2547 1010 3168 406 222
892 322 1355 280z"/>
<path d="M1151 3104 c-21 -26 -21 -32 -21 -544 0 -508 0 -518 21 -544 29 -37
89 -37 118 0 20 25 21 40 21 210 l0 184 63 0 62 0 145 -186 c79 -102 155 -195
169 -205 32 -26 67 -24 96 6 47 46 37 71 -90 233 l-115 147 51 8 c66 9 160 59
204 108 19 21 47 62 62 91 25 48 28 62 28 158 0 101 -1 108 -34 168 -38 71
-98 128 -169 164 -45 22 -57 23 -318 26 l-272 3 -21 -27z m567 -162 c17 -13
44 -40 60 -59 24 -32 27 -45 27 -113 0 -68 -3 -81 -27 -113 -16 -19 -43 -46
-60 -59 -31 -22 -42 -23 -230 -26 l-198 -3 0 201 0 201 198 -3 c188 -3 199 -4
230 -26z"/>
<path d="M2200 3108 c-20 -21 -20 -32 -20 -548 0 -511 1 -527 20 -547 29 -32
71 -35 423 -31 l319 3 24 28 c29 34 31 66 3 101 l-20 26 -305 0 -304 0 0 170
0 170 300 0 301 0 24 25 c33 32 33 78 0 110 l-24 25 -301 0 -300 0 0 164 0
165 301 3 301 3 24 28 c29 34 31 66 3 101 l-20 26 -364 0 c-362 0 -364 0 -385
-22z"/>
<path d="M3415 3115 c-58 -22 -135 -84 -173 -139 -59 -88 -64 -122 -60 -438 3
-282 3 -283 29 -339 36 -76 86 -129 161 -170 l63 -34 150 0 150 0 63 34 c109
59 179 162 189 281 5 53 3 61 -20 84 -47 47 -119 24 -132 -42 -18 -84 -30
-109 -71 -149 -51 -50 -78 -56 -208 -51 -105 3 -124 12 -180 82 l-31 38 -3
261 c-2 144 0 277 3 295 7 40 68 110 112 129 39 16 209 18 250 2 58 -22 122
-108 123 -166 1 -80 83 -121 137 -67 23 24 25 31 20 86 -11 120 -91 234 -205
290 -41 20 -64 23 -187 25 -102 2 -151 -2 -180 -12z"/>
</g>
</svg>
