<?xml version="1.0" standalone="no"?>
<!DOCTYPE svg PUBLIC "-//W3C//DTD SVG 20010904//EN"
 "http://www.w3.org/TR/2001/REC-SVG-20010904/DTD/svg10.dtd">
<svg version="1.0" xmlns="http://www.w3.org/2000/svg"
 width="128.000000pt" height="128.000000pt" viewBox="0 0 128.000000 128.000000"
 preserveAspectRatio="xMidYMid meet">

<g transform="translate(0.000000,128.000000) scale(0.100000,-0.100000)"
fill="#000000" stroke="none">
<path d="M623 1250 c-25 -10 -30 -39 -11 -58 7 -7 40 -12 78 -12 134 0 251
-48 345 -144 107 -107 165 -249 165 -401 0 -180 -91 -343 -250 -448 -109 -72
-267 -104 -393 -77 -177 36 -344 182 -409 355 -19 51 -23 79 -22 180 1 134 17
196 77 289 l32 51 6 -81 c7 -94 11 -104 44 -104 18 0 26 7 31 26 11 44 -3 266
-18 280 -11 11 -37 10 -147 -5 -128 -18 -150 -27 -151 -57 0 -29 30 -37 100
-27 l70 9 -17 -25 c-129 -196 -147 -427 -47 -630 27 -55 58 -96 118 -156 199
-199 459 -246 705 -128 105 50 234 178 285 283 89 184 86 364 -9 557 -83 169
-224 281 -400 318 -78 16 -149 18 -182 5z"/>
<path d="M550 645 c0 -178 3 -225 13 -219 27 16 313 207 321 214 6 6 -198 148
-321 224 -10 6 -13 -41 -13 -219z"/>
</g>
</svg>
